<svg width="16" height="15" viewBox="0 0 16 15" fill="none" xmlns="http://www.w3.org/2000/svg">
<path d="M11.3174 1.79651C12.0999 1.79651 12.8315 2.11047 13.3929 2.6686C14.5327 3.83721 14.5327 5.73837 13.3929 6.90698L8 12.436L2.60712 6.92442C1.4673 5.75581 1.4673 3.85465 2.60712 2.68605C3.15152 2.12791 3.90005 1.81395 4.68262 1.81395C5.46518 1.81395 6.1967 2.12791 6.75811 2.68605L8 3.9593L9.24189 2.68605C9.78628 2.11047 10.5348 1.79651 11.3174 1.79651ZM11.3174 0C10.1095 0 8.91866 0.47093 8 1.39535C7.08134 0.453488 5.89048 0 4.68262 0C3.47475 0 2.28389 0.47093 1.36523 1.39535C-0.455077 3.26163 -0.455077 6.3314 1.36523 8.19767L8 15L14.6348 8.19767C16.4551 6.3314 16.4551 3.27907 14.6348 1.39535C13.7161 0.47093 12.5082 0 11.3174 0Z" fill="white"/>
</svg>
