<svg width="101" height="17" viewBox="0 0 101 17" fill="none" xmlns="http://www.w3.org/2000/svg">
<path d="M0 16.5801V0.41998H3.45543V13.4726H8.99923V16.5801H0ZM16.396 16.9525C19.0588 16.9525 20.8578 16.5801 22.0435 15.7591V12.423C21.1969 13.3311 19.2575 14.0932 17.0871 14.0932C15.3464 14.0932 13.1414 13.5467 13.1414 11.9309C13.1414 9.47016 15.7049 9.36999 18.7565 9.36999H19.1755V6.73507H18.6161C15.5926 6.73507 13.6489 6.51731 13.6489 4.82095C13.6489 3.35323 14.8324 2.90682 16.3852 2.90682C18.4261 2.90682 19.5275 3.34234 20.3805 3.9499V0.768399C19.5512 0.369895 18.2447 0.0476074 16.396 0.0476074C12.9406 0.0476074 10.2086 1.38902 10.2086 4.67287C10.2086 5.99033 10.8738 7.65403 12.7462 8.00245C10.8025 8.32691 9.64064 10.0908 9.64064 11.9222C9.64064 15.611 12.6728 16.9525 16.396 16.9525ZM34.7163 0.41998V9.86867L24.039 0.0476074H23.8921V16.5801H27.3476V7.482L38.0097 16.9525H38.1587V3.27919H43.3613V16.5801H46.8167V3.27919H52.1187V0.41998H34.7163ZM62.1027 16.5801H65.8L57.2694 0.0476074H57.1225L48.8382 16.5801H52.5355L53.7449 13.8951H60.8198L62.1027 16.5801ZM57.196 6.28866L59.5133 11.1535H54.978L57.196 6.28866ZM67.0504 14.9991C67.0418 15.2587 67.085 15.5173 67.1776 15.7597C67.2701 16.002 67.4101 16.2231 67.5891 16.4098C67.7681 16.5965 67.9826 16.7449 68.2197 16.8463C68.4568 16.9477 68.7117 17 68.9693 17C69.2268 17 69.4817 16.9477 69.7188 16.8463C69.9559 16.7449 70.1704 16.5965 70.3494 16.4098C70.5285 16.2231 70.6684 16.002 70.761 15.7597C70.8535 15.5173 70.8967 15.2587 70.8881 14.9991C70.8714 14.4972 70.6619 14.0215 70.3039 13.6724C69.9459 13.3233 69.4673 13.1282 68.9693 13.1282C68.4712 13.1282 67.9927 13.3233 67.6346 13.6724C67.2766 14.0215 67.0671 14.4972 67.0504 14.9991ZM72.8512 16.5736H76.3066V13.0502H77.9329C78.3869 13.0555 78.8407 13.022 79.2891 12.95L82.4703 16.5801H86.5369L82.3688 11.6826C83.1233 11.1038 83.7328 10.3548 84.1483 9.49559C84.5639 8.63638 84.7739 7.69093 84.7617 6.73507C84.7617 2.65857 82.196 0.41998 77.9307 0.41998H72.8512V16.5736ZM76.3066 3.27266H77.6132C80.0795 3.27266 81.3105 4.54004 81.3105 6.72854C81.3105 8.6688 80.0299 10.1844 77.5873 10.1844H76.3066V3.27266ZM94.0157 14.0867C91.7481 14.0867 90.4653 12.484 90.4653 8.92794V0.41998H87.0098V8.16359C87.0098 13.5597 88.9082 16.9525 94.0114 16.9525C99.1146 16.9525 101 13.4857 101 8.16359V0.41998H97.5446V8.93447C97.5446 12.4905 96.2013 14.0932 94.0071 14.0932L94.0157 14.0867Z" fill="white"/>
</svg>
