<svg width="145" height="16" viewBox="0 0 145 16" fill="none" xmlns="http://www.w3.org/2000/svg">
<path d="M5.88665 0.186523V15.4042H4.50415V1.46194H1.3825V15.4042H0V0.186523H5.88665Z" fill="white"/>
<path d="M13.0875 13.3004C11.7128 11.8322 10.975 9.87643 11.0363 7.86268C10.9849 6.81259 11.1549 5.76344 11.5354 4.78386C11.9158 3.80428 12.4981 2.91636 13.244 2.1782C13.9671 1.4665 14.8252 0.907666 15.7674 0.534794C16.7097 0.161922 17.7169 -0.0174062 18.7294 0.00742707C19.7692 -0.0396821 20.8069 0.137735 21.7726 0.527693C22.7382 0.91765 23.6091 1.51106 24.3266 2.26784C25.6956 3.75026 26.4389 5.70745 26.4004 7.72827C26.4385 8.7587 26.2667 9.78609 25.8953 10.7475C25.5239 11.7089 24.9609 12.5842 24.2406 13.3195C23.5204 14.0549 22.6581 14.635 21.7066 15.0242C20.7552 15.4134 19.7346 15.6035 18.7073 15.583C17.6618 15.6336 16.6177 15.4557 15.6474 15.0616C14.6771 14.6675 13.8037 14.0666 13.0875 13.3004ZM24.9506 7.75066C24.9506 3.90144 22.3642 1.30552 18.7294 1.30552C15.0052 1.30552 12.4635 3.90144 12.4855 7.84027C12.4635 11.6895 15.0278 14.2852 18.7294 14.2852C22.4089 14.2851 24.9506 11.6895 24.9506 7.75066V7.75066Z" fill="white"/>
<path d="M32.9783 0.186523V9.36147L37.7504 0.186523H39.2663L34.3608 9.54071L39.4002 15.4042H37.6385L32.9783 10.0779V15.4041H31.5732V0.186523H32.9783Z" fill="white"/>
<path d="M43.0322 15.4043L47.6483 0.0297852H47.8043L52.4429 15.4043H50.9711L48.2056 5.87083C48.0942 5.4905 47.9829 5.04268 47.8936 4.68475C47.8043 4.32655 47.7155 4.05822 47.7155 3.96863C47.7155 4.03584 47.6262 4.30414 47.5369 4.66235C47.4476 5.02055 47.3363 5.4905 47.2249 5.87083L44.4373 15.4043H43.0322Z" fill="white"/>
<path d="M58.5533 13.3004C57.1786 11.8322 56.4408 9.87643 56.5021 7.86268C56.4507 6.81259 56.6207 5.76344 57.0012 4.78386C57.3816 3.80428 57.9639 2.91636 58.7098 2.1782C59.433 1.4665 60.291 0.907666 61.2333 0.534794C62.1755 0.161922 63.1827 -0.0174069 64.1952 0.00742717C65.235 -0.0396824 66.2728 0.137736 67.2384 0.527693C68.204 0.91765 69.075 1.51106 69.7924 2.26784C71.1615 3.75026 71.9048 5.70745 71.8662 7.72827C71.9044 8.7587 71.7325 9.78609 71.3611 10.7475C70.9897 11.7089 70.4267 12.5842 69.7064 13.3195C68.9862 14.0549 68.1239 14.635 67.1725 15.0242C66.221 15.4134 65.2004 15.6035 64.1731 15.583C63.1276 15.6336 62.0836 15.4557 61.1133 15.0616C60.1429 14.6675 59.2695 14.0666 58.5533 13.3004V13.3004ZM70.4164 7.75066C70.4164 3.90144 67.8301 1.30552 64.1952 1.30552C60.471 1.30552 57.9293 3.90144 57.9513 7.84027C57.9293 11.6895 60.4936 14.2852 64.1952 14.2852C67.8747 14.2851 70.4164 11.6895 70.4164 7.75066Z" fill="white"/>
<path d="M78.3971 0.186523V9.0041H81.5191V0.186523H82.9016V15.4042H81.5191V10.2792H78.3971V15.4042H77.0146V0.186523H78.3971Z" fill="white"/>
<path d="M90.2165 0.186523V9.0041H93.3381V0.186523H94.7206V15.4042H93.3381V10.2792H90.2165V15.4042H88.834V0.186523H90.2165Z" fill="white"/>
<path d="M109.994 12.9873H101.9L100.896 15.4043H99.4912L105.891 0.0297852H106.047L112.47 15.4043H110.998L109.994 12.9873ZM109.481 11.7791L105.936 3.2749L102.412 11.7791L109.481 11.7791Z" fill="white"/>
<path d="M118.086 15.4042H116.548L119.09 10.7943C117.506 9.8317 116.637 8.15326 116.637 6.00488V5.75871C116.637 2.40184 118.733 0.186523 122.189 0.186523H124.174V15.4042H122.769V11.5549H122.078C121.483 11.5636 120.89 11.4882 120.316 11.3309L118.086 15.4042ZM122.769 1.46194H122.212C119.402 1.46194 118.064 3.16278 118.064 5.78111V5.98248C118.064 8.55602 119.469 10.3241 122.1 10.3241H122.769V1.46194Z" fill="white"/>
<path d="M141.789 10.3247C141.921 10.038 142.074 9.76124 142.246 9.49657C142.325 9.3727 142.41 9.25321 142.502 9.13864C142.001 9.53488 141.379 9.74793 140.741 9.74274C140.198 9.748 139.663 9.62139 139.18 9.37375C138.705 9.12848 138.287 8.78539 137.954 8.36692C137.599 7.91704 137.33 7.40469 137.162 6.8561C136.973 6.25538 136.879 5.62865 136.883 4.9987V4.77494C136.877 4.12941 136.975 3.48711 137.173 2.87302C137.349 2.32325 137.625 1.81104 137.987 1.36248C138.332 0.940556 138.766 0.600515 139.258 0.36671C139.788 0.130714 140.361 0.00878906 140.941 0.00878906C141.521 0.00878906 142.095 0.130714 142.625 0.36671C143.116 0.600658 143.55 0.940676 143.896 1.36248C144.259 1.81436 144.535 2.33042 144.71 2.88406C144.907 3.50226 145.005 4.14815 145 4.79733V4.99869C145.008 5.79086 144.895 6.57964 144.665 7.33738C144.424 8.0897 144.118 8.81954 143.751 9.51867L140.696 15.4043H139.202L141.789 10.3247ZM140.941 8.48973C141.322 8.50437 141.7 8.42293 142.04 8.25286C142.381 8.08279 142.674 7.82954 142.892 7.51635C143.388 6.77392 143.634 5.89169 143.595 4.99871V4.79734C143.599 4.32157 143.539 3.84743 143.416 3.38779C143.312 2.98564 143.134 2.60633 142.892 2.26893C142.673 1.9654 142.387 1.71651 142.056 1.54146C141.711 1.36587 141.328 1.27757 140.941 1.28422C140.566 1.27766 140.194 1.36407 139.86 1.53581C139.525 1.70756 139.238 1.95935 139.024 2.26893C138.788 2.60977 138.611 2.988 138.5 3.38779C138.37 3.84612 138.306 4.32082 138.31 4.79737V4.99873C138.305 5.47102 138.366 5.94172 138.489 6.39752C138.594 6.79392 138.767 7.16876 139.002 7.50504C139.215 7.81017 139.498 8.05961 139.827 8.2325C140.172 8.40834 140.554 8.49666 140.941 8.48973H140.941Z" fill="white"/>
</svg>
