<svg width="14" height="13" viewBox="0 0 14 13" fill="none" xmlns="http://www.w3.org/2000/svg">
<path d="M13.2875 0.497694L0.316429 5.76087C-0.139208 5.94985 -0.0907359 6.59239 0.384289 6.71523L2.99208 7.38612C3.15688 7.42391 3.29261 7.5562 3.35077 7.71684L4.66921 11.676C4.78554 12.0445 5.28965 12.1485 5.5514 11.8461L7.04433 10.1642C7.22853 9.95629 7.54844 9.92794 7.76172 10.098L10.67 12.3469C10.9706 12.5831 11.4165 12.432 11.5038 12.0634L13.9855 1.07409C14.0825 0.677228 13.6753 0.346508 13.2875 0.497694ZM10.9124 3.26629L5.38659 7.96251C5.26057 8.06646 5.18301 8.21764 5.17332 8.37828L4.97943 10.5043C4.96973 10.5988 4.84371 10.6083 4.81462 10.5232L3.93244 7.44281C3.89366 7.31997 3.94213 7.18769 4.05846 7.12154L10.8251 3.1529C10.9027 3.10566 10.9803 3.2096 10.9124 3.26629Z" fill="white"/>
</svg>
