<svg width="16" height="14" viewBox="0 0 16 14" fill="none" xmlns="http://www.w3.org/2000/svg">
<path fill-rule="evenodd" clip-rule="evenodd" d="M16 1.92892C15.3993 2.20089 14.7986 2.36407 14.0887 2.47286C14.744 2.03771 15.2901 1.43939 15.5631 0.677881C14.9079 1.05863 14.198 1.3306 13.4881 1.49378C12.8874 0.841061 12.0137 0.460327 11.0853 0.460327C9.28328 0.460327 7.75427 1.92894 7.75427 3.77831C7.75427 4.05028 7.80888 4.26786 7.86348 4.53983C5.13311 4.43104 2.67577 3.07118 1.03754 1.11302C0.764506 1.60256 0.600682 2.1465 0.600682 2.74482C0.600682 3.88708 1.20137 4.92056 2.07509 5.46449C1.52901 5.46449 1.03754 5.30132 0.546075 5.02935V5.08377C0.546075 6.66117 1.69283 8.02099 3.22184 8.29295C2.94881 8.34735 2.67577 8.40175 2.34812 8.40175C2.12969 8.40175 1.91127 8.40176 1.74744 8.34737C2.1843 9.65281 3.38567 10.6319 4.86007 10.6319C3.71331 11.5022 2.29352 12.0461 0.764506 12.0461C0.491468 12.0461 0.21843 12.0461 0 11.9917C1.4744 12.9164 3.16724 13.4603 5.0785 13.4603C11.1399 13.4603 14.471 8.45613 14.471 4.10466C14.471 3.94148 14.471 3.8327 14.471 3.66952C14.9625 3.17998 15.5085 2.63604 16 1.92892Z" fill="white"/>
</svg>
