<svg width="64" height="11" viewBox="0 0 64 11" fill="none" xmlns="http://www.w3.org/2000/svg">
<path d="M0 10.7343V0.49426H2.18958V8.76525H5.70248V10.7343H0ZM10.3895 10.9703C12.0769 10.9703 13.2168 10.7343 13.9681 10.2141V8.10014C13.4317 8.67555 12.2028 9.15851 10.8275 9.15851C9.72446 9.15851 8.32724 8.81216 8.32724 7.78829C8.32724 6.22903 9.95163 6.16556 11.8853 6.16556H12.1508V4.4959H11.7964C9.88047 4.4959 8.64883 4.35792 8.64883 3.28299C8.64883 2.35295 9.39876 2.07008 10.3827 2.07008C11.6759 2.07008 12.3739 2.34606 12.9144 2.73104V0.71504C12.3889 0.462523 11.561 0.258301 10.3895 0.258301C8.19997 0.258301 6.46883 1.10831 6.46883 3.18916C6.46883 4.02399 6.89033 5.07821 8.07681 5.29899C6.84517 5.50459 6.10892 6.6223 6.10892 7.78277C6.10892 10.1203 8.03028 10.9703 10.3895 10.9703ZM21.9984 0.49426V6.48155L15.2326 0.258301H15.1396V10.7343H17.3291V4.9692L24.0854 10.9703H24.1798V2.30604H27.4765V10.7343H29.666V2.30604H33.0257V0.49426H21.9984ZM39.3522 10.7343H41.695L36.2895 0.258301H36.1965L30.9469 10.7343H33.2898L34.0561 9.03294H38.5393L39.3522 10.7343ZM36.243 4.21303L37.7114 7.29568H34.8376L36.243 4.21303ZM42.4874 9.73254C42.4819 9.897 42.5093 10.0609 42.568 10.2145C42.6266 10.368 42.7153 10.5081 42.8287 10.6264C42.9422 10.7447 43.0781 10.8388 43.2283 10.903C43.3786 10.9673 43.5401 11.0004 43.7033 11.0004C43.8665 11.0004 44.028 10.9673 44.1783 10.903C44.3285 10.8388 44.4644 10.7447 44.5779 10.6264C44.6913 10.5081 44.78 10.368 44.8386 10.2145C44.8973 10.0609 44.9247 9.897 44.9192 9.73254C44.9086 9.4145 44.7759 9.11305 44.549 8.89184C44.3221 8.67063 44.0189 8.54697 43.7033 8.54697C43.3877 8.54697 43.0845 8.67063 42.8576 8.89184C42.6307 9.11305 42.498 9.4145 42.4874 9.73254V9.73254ZM46.1631 10.7302H48.3527V8.49755H49.3832C49.6709 8.50093 49.9584 8.4797 50.2426 8.43407L52.2584 10.7343H54.8352L52.1941 7.63099C52.6722 7.26423 53.0584 6.78959 53.3217 6.24514C53.585 5.70069 53.7181 5.10159 53.7104 4.4959C53.7104 1.91277 52.0846 0.49426 49.3818 0.49426H46.1631V10.7302ZM48.3527 2.3019H49.1807C50.7435 2.3019 51.5235 3.10499 51.5235 4.49176C51.5235 5.72124 50.712 6.68163 49.1642 6.68163H48.3527V2.3019ZM59.5743 9.15437C58.1374 9.15437 57.3245 8.13878 57.3245 5.88544V0.49426H55.1349V5.4011C55.1349 8.82044 56.3378 10.9703 59.5716 10.9703C62.8053 10.9703 64 8.77352 64 5.4011V0.49426H61.8104V5.88958C61.8104 8.14292 60.9592 9.15851 59.5688 9.15851L59.5743 9.15437Z" fill="white"/>
</svg>
