<svg width="11" height="17" viewBox="0 0 11 17" fill="none" xmlns="http://www.w3.org/2000/svg">
<path fill-rule="evenodd" clip-rule="evenodd" d="M5.5 9C3.025 9 1 6.975 1 4.5C1 2.025 3.025 0 5.5 0C7.975 0 10 2.025 10 4.5C10 6.975 7.975 9 5.5 9ZM5.5 2.13749C4.20625 2.13749 3.13749 3.20625 3.13749 4.5C3.13749 5.79375 4.20625 6.86251 5.5 6.86251C6.79375 6.86251 7.8625 5.79375 7.8625 4.5C7.8625 3.20625 6.79375 2.13749 5.5 2.13749Z" fill="white"/>
<path fill-rule="evenodd" clip-rule="evenodd" d="M10.7689 9.44917C10.3411 8.95672 9.6077 8.90203 9.05768 9.23033C9.05768 9.23033 7.71317 10.1058 5.51307 10.1058C3.31296 10.1058 1.96845 9.23033 1.96845 9.23033C1.41842 8.84731 0.685049 8.95672 0.25725 9.44917C-0.170549 9.94162 -0.0483242 10.5982 0.501703 10.9812C0.562817 11.0359 1.84622 11.9114 3.98521 12.185L0.746165 15.1397C0.257252 15.5774 0.257252 16.2887 0.746165 16.6717C0.990621 16.8906 1.29619 17 1.60176 17C1.90733 17 2.21291 16.8906 2.45736 16.6717L5.51307 13.8812L8.56877 16.6717C8.81323 16.8906 9.1188 17 9.42437 17C9.72994 17 10.0355 16.8906 10.28 16.6717C10.7689 16.234 10.7689 15.5774 10.28 15.1397L7.04092 12.185C9.17991 11.8567 10.4633 10.9812 10.5244 10.9812C11.0744 10.5982 11.1356 9.8869 10.7689 9.44917Z" fill="white"/>
</svg>
