<svg width="222" height="24" viewBox="0 0 222 24" fill="none" xmlns="http://www.w3.org/2000/svg">
<path d="M9.01266 0.285873V23.5846H6.896V2.23858H2.11665V23.5846H0V0.285873H9.01266Z" fill="white"/>
<path d="M20.0377 20.3634C17.9329 18.1156 16.8034 15.1211 16.8973 12.038C16.8185 10.4303 17.0789 8.82402 17.6613 7.32425C18.2438 5.82448 19.1353 4.46505 20.2774 3.33489C21.3845 2.24526 22.6982 1.38967 24.1408 0.818787C25.5834 0.247908 27.1254 -0.0266495 28.6756 0.0113711C30.2676 -0.0607546 31.8564 0.210878 33.3348 0.807916C34.8132 1.40495 36.1467 2.31349 37.2452 3.47214C39.3412 5.74178 40.4792 8.7383 40.4202 11.8322C40.4786 13.4099 40.2154 14.9828 39.6469 16.4548C39.0783 17.9268 38.2162 19.2668 37.1135 20.3927C36.0108 21.5185 34.6906 22.4066 33.2339 23.0025C31.7772 23.5984 30.2146 23.8895 28.6418 23.8581C27.0411 23.9355 25.4426 23.6631 23.9571 23.0598C22.4715 22.4564 21.1342 21.5364 20.0377 20.3634ZM38.2006 11.8665C38.2006 5.97324 34.2407 1.99879 28.6756 1.99879C22.9738 1.99879 19.0823 5.97324 19.1161 12.0037C19.0823 17.897 23.0084 21.8711 28.6756 21.8711C34.3091 21.871 38.2006 17.897 38.2006 11.8665Z" fill="white"/>
<path d="M50.4907 0.285873V14.333L57.7969 0.285873H60.1178L52.6074 14.6074L60.3228 23.5846H57.6256L50.4907 15.4298V23.5846H48.3394V0.285873H50.4907Z" fill="white"/>
<path d="M65.8851 23.5846L72.9525 0.0457916H73.1913L80.2932 23.5846H78.0398L73.8057 8.98863C73.6352 8.40633 73.4647 7.72071 73.328 7.17271C73.1913 6.62429 73.0554 6.21346 73.0554 6.07629C73.0554 6.1792 72.9187 6.58998 72.782 7.1384C72.6452 7.68683 72.4748 8.40633 72.3043 8.98863L68.0364 23.5846H65.8851Z" fill="white"/>
<path d="M89.6459 20.3634C87.5412 18.1156 86.4117 15.1211 86.5056 12.038C86.4268 10.4303 86.6871 8.82402 87.2696 7.32425C87.8521 5.82448 88.7435 4.46505 89.8856 3.33489C90.9927 2.24526 92.3065 1.38967 93.7491 0.818788C95.1916 0.247908 96.7337 -0.0266505 98.2839 0.0113712C99.8758 -0.0607551 101.465 0.210878 102.943 0.807916C104.421 1.40495 105.755 2.31349 106.853 3.47214C108.949 5.74178 110.087 8.7383 110.028 11.8322C110.087 13.4099 109.824 14.9828 109.255 16.4548C108.687 17.9268 107.824 19.2668 106.722 20.3927C105.619 21.5185 104.299 22.4066 102.842 23.0025C101.385 23.5984 99.8229 23.8895 98.2501 23.8581C96.6493 23.9355 95.0509 23.6631 93.5653 23.0598C92.0797 22.4564 90.7424 21.5364 89.6459 20.3634ZM107.809 11.8665C107.809 5.97324 103.849 1.99879 98.2839 1.99879C92.5821 1.99879 88.6906 5.97324 88.7243 12.0037C88.6906 17.897 92.6167 21.8711 98.2839 21.8711C103.917 21.871 107.809 17.897 107.809 11.8665Z" fill="white"/>
<path d="M120.03 0.285873V13.7859H124.81V0.285873H126.926V23.5846H124.81V15.7382H120.03V23.5846H117.913V0.285873H120.03Z" fill="white"/>
<path d="M138.123 0.285873V13.7859H142.903V0.285873H145.019V23.5846H142.903V15.7382H138.123V23.5846H136.007V0.285873H138.123Z" fill="white"/>
<path d="M168.404 19.8842H156.012L154.476 23.5846H152.324L162.123 0.0457916H162.362L172.195 23.5846H169.941L168.404 19.8842ZM167.62 18.0344L162.191 5.01418L156.797 18.0344L167.62 18.0344Z" fill="white"/>
<path d="M180.795 23.5846H178.44L182.331 16.5267C179.907 15.053 178.575 12.4832 178.575 9.19398V8.81707C178.575 3.6776 181.785 0.285873 187.077 0.285873H190.115V23.5846H187.964V17.6913H186.906C185.995 17.7046 185.087 17.5891 184.209 17.3483L180.795 23.5846ZM187.964 2.23858H187.111C182.81 2.23858 180.76 4.84262 180.76 8.85138V9.15968C180.76 13.0999 182.912 15.8068 186.94 15.8068H187.964V2.23858Z" fill="white"/>
<path d="M217.083 15.8075C217.286 15.3686 217.519 14.9448 217.783 14.5396C217.904 14.35 218.035 14.167 218.176 13.9916C217.408 14.5983 216.456 14.9245 215.479 14.9165C214.648 14.9246 213.829 14.7307 213.089 14.3516C212.362 13.9761 211.722 13.4508 211.212 12.8101C210.668 12.1213 210.257 11.3369 210 10.497C209.71 9.57725 209.566 8.61771 209.573 7.65323V7.31065C209.563 6.32232 209.713 5.33893 210.017 4.39873C210.285 3.55703 210.708 2.77281 211.262 2.08605C211.791 1.44007 212.456 0.919456 213.208 0.561493C214.02 0.200176 214.898 0.013504 215.786 0.013504C216.674 0.013504 217.552 0.200176 218.363 0.561493C219.116 0.919675 219.781 1.44025 220.31 2.08605C220.866 2.77789 221.288 3.56799 221.555 4.41564C221.858 5.36213 222.008 6.351 221.999 7.34492V7.65322C222.012 8.86605 221.84 10.0737 221.487 11.2338C221.118 12.3856 220.65 13.5031 220.088 14.5735L215.41 23.5845H213.123L217.083 15.8075ZM215.786 12.9981C216.368 13.0205 216.947 12.8958 217.469 12.6355C217.991 12.3751 218.439 11.9873 218.773 11.5078C219.532 10.3711 219.909 9.02043 219.849 7.65325V7.34494C219.855 6.61651 219.763 5.89059 219.575 5.18687C219.415 4.57117 219.143 3.99043 218.773 3.47386C218.437 3.00914 217.999 2.62808 217.493 2.36008C216.965 2.09124 216.378 1.95605 215.786 1.96623C215.211 1.95619 214.642 2.08849 214.13 2.35143C213.618 2.61438 213.178 2.99988 212.85 3.47386C212.489 3.9957 212.218 4.57478 212.048 5.18687C211.849 5.88859 211.751 6.61537 211.758 7.34498V7.65328C211.75 8.37636 211.842 9.09702 212.031 9.79487C212.192 10.4018 212.458 10.9757 212.816 11.4905C213.143 11.9577 213.576 12.3396 214.079 12.6043C214.608 12.8735 215.194 13.0087 215.786 12.9981H215.786Z" fill="white"/>
</svg>
