<svg width="222" height="24" viewBox="0 0 222 24" fill="none" xmlns="http://www.w3.org/2000/svg">
<path d="M9.01266 0.285889V23.5846H6.896V2.23859H2.11665V23.5846H0V0.285889H9.01266Z" fill="white"/>
<path d="M20.0379 20.3634C17.9332 18.1156 16.8037 15.1211 16.8975 12.038C16.8188 10.4303 17.0791 8.82402 17.6616 7.32425C18.244 5.82448 19.1355 4.46505 20.2776 3.33489C21.3847 2.24526 22.6985 1.38967 24.141 0.818787C25.5836 0.247908 27.1257 -0.0266495 28.6759 0.0113711C30.2678 -0.0607546 31.8567 0.210878 33.3351 0.807916C34.8135 1.40495 36.1469 2.31349 37.2454 3.47214C39.3414 5.74178 40.4794 8.7383 40.4204 11.8322C40.4788 13.4099 40.2157 14.9828 39.6471 16.4548C39.0785 17.9268 38.2165 19.2668 37.1137 20.3927C36.011 21.5185 34.6909 22.4066 33.2342 23.0025C31.7774 23.5984 30.2149 23.8895 28.6421 23.8581C27.0413 23.9355 25.4429 23.6631 23.9573 23.0598C22.4717 22.4564 21.1344 21.5364 20.0379 20.3634ZM38.2008 11.8665C38.2008 5.97324 34.241 1.99879 28.6759 1.99879C22.9741 1.99879 19.0826 5.97324 19.1163 12.0037C19.0826 17.897 23.0087 21.8711 28.6759 21.8711C34.3093 21.871 38.2008 17.897 38.2008 11.8665Z" fill="white"/>
<path d="M50.4906 0.285889V14.333L57.7968 0.285889H60.1177L52.6073 14.6075L60.3228 23.5846H57.6255L50.4906 15.4299V23.5846H48.3394V0.285889H50.4906Z" fill="white"/>
<path d="M65.8853 23.5846L72.9526 0.0457764H73.1914L80.2933 23.5846H78.0399L73.8058 8.98862C73.6353 8.40631 73.4648 7.72069 73.3281 7.17269C73.1914 6.62428 73.0555 6.21345 73.0555 6.07628C73.0555 6.17918 72.9188 6.58996 72.7821 7.13839C72.6454 7.68681 72.4749 8.40631 72.3044 8.98862L68.0365 23.5846H65.8853Z" fill="white"/>
<path d="M89.6458 20.3634C87.5411 18.1156 86.4116 15.1211 86.5055 12.038C86.4267 10.4303 86.687 8.82402 87.2695 7.32425C87.852 5.82448 88.7434 4.46505 89.8855 3.33489C90.9926 2.24526 92.3064 1.38967 93.749 0.818788C95.1915 0.247908 96.7336 -0.0266505 98.2838 0.0113712C99.8757 -0.0607551 101.465 0.210878 102.943 0.807916C104.421 1.40495 105.755 2.31349 106.853 3.47214C108.949 5.74178 110.087 8.7383 110.028 11.8322C110.087 13.4099 109.824 14.9828 109.255 16.4548C108.686 17.9268 107.824 19.2668 106.722 20.3927C105.619 21.5185 104.299 22.4066 102.842 23.0025C101.385 23.5984 99.8228 23.8895 98.25 23.8581C96.6492 23.9355 95.0508 23.6631 93.5652 23.0598C92.0796 22.4564 90.7423 21.5364 89.6458 20.3634ZM107.809 11.8665C107.809 5.97324 103.849 1.99879 98.2838 1.99879C92.582 1.99879 88.6905 5.97324 88.7242 12.0037C88.6905 17.897 92.6166 21.8711 98.2838 21.8711C103.917 21.871 107.809 17.897 107.809 11.8665Z" fill="white"/>
<path d="M120.03 0.285889V13.7859H124.81V0.285889H126.926V23.5846H124.81V15.7382H120.03V23.5846H117.913V0.285889H120.03Z" fill="white"/>
<path d="M138.123 0.285889V13.7859H142.903V0.285889H145.019V23.5846H142.903V15.7382H138.123V23.5846H136.007V0.285889H138.123Z" fill="white"/>
<path d="M168.405 19.8842H156.012L154.476 23.5846H152.325L162.123 0.0457764H162.362L172.195 23.5846H169.942L168.405 19.8842ZM167.62 18.0344L162.191 5.01416L156.797 18.0344L167.62 18.0344Z" fill="white"/>
<path d="M180.795 23.5846H178.439L182.331 16.5267C179.907 15.053 178.575 12.4832 178.575 9.19399V8.81709C178.575 3.67761 181.785 0.285889 187.077 0.285889H190.115V23.5846H187.964V17.6913H186.906C185.995 17.7046 185.087 17.5891 184.209 17.3483L180.795 23.5846ZM187.964 2.23859H187.111C182.809 2.23859 180.76 4.84264 180.76 8.85139V9.15969C180.76 13.0999 182.912 15.8068 186.94 15.8068H187.964V2.23859Z" fill="white"/>
<path d="M217.083 15.8076C217.286 15.3686 217.52 14.9449 217.783 14.5397C217.904 14.35 218.035 14.1671 218.176 13.9917C217.408 14.5983 216.456 14.9245 215.479 14.9166C214.649 14.9246 213.829 14.7308 213.089 14.3516C212.362 13.9761 211.723 13.4508 211.212 12.8101C210.668 12.1214 210.257 11.3369 210 10.497C209.71 9.5773 209.566 8.61775 209.573 7.65328V7.31069C209.563 6.32236 209.713 5.33898 210.017 4.39878C210.285 3.55708 210.708 2.77286 211.262 2.0861C211.791 1.44012 212.456 0.919502 213.208 0.561539C214.02 0.200221 214.898 0.0135498 215.786 0.0135498C216.674 0.0135498 217.552 0.200221 218.363 0.561539C219.116 0.919721 219.781 1.4403 220.31 2.0861C220.866 2.77794 221.288 3.56804 221.555 4.41569C221.858 5.36217 222.008 6.35105 221.999 7.34496V7.65326C222.012 8.8661 221.84 10.0738 221.487 11.2339C221.118 12.3857 220.65 13.5031 220.088 14.5735L215.41 23.5845H213.123L217.083 15.8076ZM215.786 12.9982C216.368 13.0206 216.947 12.8959 217.469 12.6355C217.991 12.3751 218.439 11.9874 218.773 11.5079C219.532 10.3712 219.909 9.02048 219.849 7.65329V7.34499C219.855 6.61656 219.763 5.89063 219.575 5.18692C219.415 4.57121 219.143 3.99048 218.773 3.4739C218.437 3.00919 217.999 2.62812 217.493 2.36013C216.965 2.09129 216.379 1.95609 215.786 1.96628C215.211 1.95623 214.642 2.08853 214.13 2.35148C213.618 2.61442 213.178 2.99992 212.85 3.4739C212.489 3.99574 212.218 4.57483 212.048 5.18692C211.849 5.88864 211.751 6.61542 211.758 7.34502V7.65332C211.75 8.37641 211.842 9.09707 212.031 9.79491C212.192 10.4018 212.458 10.9757 212.816 11.4906C213.143 11.9577 213.576 12.3396 214.079 12.6043C214.608 12.8735 215.194 13.0088 215.786 12.9982H215.786Z" fill="white"/>
</svg>
