<svg width="956" height="103" viewBox="0 0 956 103" fill="none" xmlns="http://www.w3.org/2000/svg">
<path d="M38.8112 1.23083V101.562H29.6963V9.63978H9.11495V101.562H0V1.23083H38.8112Z" fill="#FF6E00"/>
<path d="M86.2897 87.6911C77.226 78.0112 72.362 65.1163 72.7663 51.8394C72.427 44.9161 73.5481 37.9989 76.0564 31.5405C78.5647 25.082 82.4036 19.2279 87.3218 14.3611C92.0895 9.66878 97.7468 5.98433 103.959 3.52595C110.171 1.06757 116.812 -0.114761 123.487 0.0489674C130.343 -0.261628 137.185 0.908104 143.551 3.47913C149.918 6.05016 155.66 9.96259 160.39 14.9521C169.416 24.7259 174.317 37.6298 174.063 50.9533C174.314 57.747 173.181 64.5207 170.733 70.8595C168.284 77.1982 164.572 82.9686 159.823 87.817C155.075 92.6654 149.39 96.4898 143.117 99.0559C136.844 101.622 130.115 102.876 123.342 102.74C116.448 103.074 109.565 101.901 103.168 99.3023C96.7704 96.704 91.0116 92.7423 86.2897 87.6911ZM164.505 51.1009C164.505 25.7226 147.452 8.60739 123.487 8.60739C98.9336 8.60739 82.1756 25.7226 82.321 51.6917C82.1756 77.07 99.0826 94.1836 123.487 94.1836C147.747 94.1834 164.505 77.07 164.505 51.1009Z" fill="#FF6E00"/>
<path d="M217.429 1.23083V61.7222L248.892 1.23083H258.886L226.544 62.9039L259.769 101.562H248.154L217.429 66.4454V101.562H208.165V1.23083H217.429Z" fill="#FF6E00"/>
<path d="M283.723 101.562L314.157 0.196899H315.185L345.768 101.562H336.064L317.831 38.7075C317.097 36.1999 316.363 33.2474 315.774 30.8876C315.185 28.5259 314.6 26.7568 314.6 26.1661C314.6 26.6092 314.011 28.3782 313.422 30.7399C312.834 33.1015 312.1 36.1999 311.365 38.7075L292.987 101.562H283.723Z" fill="#FF6E00"/>
<path d="M386.044 87.6911C376.98 78.0112 372.116 65.1163 372.52 51.8394C372.181 44.9161 373.302 37.9989 375.81 31.5405C378.319 25.082 382.158 19.2279 387.076 14.3611C391.843 9.66877 397.501 5.98433 403.713 3.52595C409.925 1.06757 416.566 -0.114765 423.241 0.0489681C430.097 -0.26163 436.939 0.908104 443.305 3.47913C449.672 6.05016 455.414 9.96259 460.144 14.9521C469.17 24.7259 474.071 37.6298 473.817 50.9533C474.068 57.747 472.935 64.5207 470.487 70.8595C468.038 77.1982 464.326 82.9686 459.577 87.817C454.829 92.6654 449.144 96.4898 442.871 99.0559C436.598 101.622 429.869 102.876 423.096 102.74C416.202 103.074 409.319 101.901 402.922 99.3023C396.524 96.704 390.766 92.7423 386.044 87.6911ZM464.258 51.1009C464.258 25.7226 447.206 8.60739 423.241 8.60739C398.687 8.60739 381.93 25.7226 382.075 51.6917C381.93 77.07 398.837 94.1836 423.241 94.1836C447.5 94.1834 464.258 77.07 464.258 51.1009Z" fill="#FF6E00"/>
<path d="M516.884 1.23083V59.366H537.468V1.23083H546.583V101.562H537.468V67.7731H516.884V101.562H507.77V1.23083H516.884Z" fill="#FF6E00"/>
<path d="M594.801 1.23083V59.366H615.382V1.23083H624.497V101.562H615.382V67.7731H594.801V101.562H585.686V1.23083H594.801Z" fill="#FF6E00"/>
<path d="M725.2 85.627H671.834L665.219 101.562H655.955L698.15 0.196899H699.178L741.522 101.562H731.819L725.2 85.627ZM721.82 77.6612L698.444 21.5923L675.214 77.6614L721.82 77.6612Z" fill="#FF6E00"/>
<path d="M778.559 101.562H768.416L785.174 71.1688C774.736 64.8224 769.001 53.7563 769.001 39.5919V37.9688C769.001 15.8366 782.823 1.23083 805.61 1.23083H818.694V101.562H809.433V76.1839H804.876C800.954 76.241 797.044 75.7437 793.26 74.7067L778.559 101.562ZM809.433 9.63978H805.759C787.235 9.63978 778.41 20.8536 778.41 38.1165V39.4441C778.41 56.4117 787.674 68.0686 805.021 68.0686H809.433V9.63978Z" fill="#FF6E00"/>
<path d="M934.827 68.0721C935.7 66.1818 936.707 64.3571 937.84 62.6121C938.362 61.7954 938.927 61.0076 939.534 60.2522C936.225 62.8647 932.129 64.2693 927.919 64.2352C924.343 64.2698 920.813 63.435 917.63 61.8023C914.499 60.1853 911.743 57.9233 909.543 55.1642C907.202 52.1981 905.432 48.8201 904.324 45.2032C903.078 41.2426 902.457 37.1105 902.485 32.9572V31.482C902.443 27.2259 903.089 22.9911 904.397 18.9424C905.555 15.3177 907.374 11.9406 909.761 8.98324C912.038 6.20146 914.9 3.95953 918.142 2.41804C921.637 0.862092 925.418 0.0582275 929.241 0.0582275C933.065 0.0582275 936.846 0.862092 940.341 2.41804C943.582 3.96048 946.444 6.20225 948.722 8.98324C951.117 11.9625 952.937 15.3649 954.086 19.0152C955.388 23.091 956.034 27.3494 955.998 31.6295V32.9572C956.054 38.18 955.31 43.3805 953.792 48.3764C952.202 53.3365 950.186 58.1484 947.766 62.7578L927.624 101.562H917.775L934.827 68.0721ZM929.241 55.9739C931.749 56.0705 934.241 55.5335 936.488 54.4122C938.736 53.2909 940.666 51.6212 942.103 49.5564C945.373 44.6614 946.997 38.8448 946.737 32.9573V31.6297C946.764 28.4928 946.368 25.3667 945.56 22.3363C944.87 19.6849 943.698 17.1841 942.104 14.9596C940.657 12.9584 938.772 11.3174 936.594 10.1633C934.317 9.00561 931.793 8.4234 929.242 8.46728C926.765 8.42402 924.316 8.99373 922.11 10.1261C919.905 11.2584 918.012 12.9185 916.598 14.9596C915.043 17.2068 913.875 19.7005 913.145 22.3363C912.287 25.3582 911.866 28.4879 911.895 31.6298V32.9574C911.863 36.0713 912.259 39.1746 913.072 42.1798C913.765 44.7932 914.909 47.2647 916.452 49.4818C917.858 51.4935 919.724 53.1381 921.893 54.278C924.168 55.4373 926.691 56.0196 929.241 55.9739H929.241Z" fill="#FF6E00"/>
</svg>
