<svg width="19" height="12" viewBox="0 0 19 12" fill="none" xmlns="http://www.w3.org/2000/svg">
<path fill-rule="evenodd" clip-rule="evenodd" d="M9.2374 11.3912H10.3929C10.3929 11.3912 10.7395 11.333 10.9128 11.1586C11.0862 10.9842 11.0862 10.6353 11.0862 10.6353C11.0862 10.6353 11.0862 9.1236 11.7795 8.89102C12.4727 8.65845 13.3971 10.4027 14.3215 11.0423C15.0148 11.5656 15.5925 11.4493 15.5925 11.4493L18.1346 11.3912C18.1346 11.3912 19.4634 11.333 18.8279 10.2283C18.7701 10.1702 18.4812 9.47245 16.9213 8.01888C15.3037 6.50717 15.5348 6.7979 17.4413 4.18148C18.5968 2.61162 19.059 1.68132 18.9434 1.21618C18.8279 0.809177 17.9613 0.925462 17.9613 0.925462H15.0726C15.0726 0.925462 14.8415 0.925483 14.7259 0.983626C14.5526 1.09991 14.4948 1.27434 14.4948 1.27434C14.4948 1.27434 14.0326 2.49532 13.4549 3.54189C12.1839 5.69317 11.6639 5.80946 11.4906 5.69317C11.0284 5.40246 11.1439 4.41404 11.1439 3.77447C11.1439 1.68133 11.4906 0.809191 10.5084 0.57662C10.2196 0.518477 9.98847 0.460327 9.17963 0.460327C8.1397 0.460327 7.27309 0.460341 6.8109 0.692912C6.46426 0.867341 6.23316 1.21618 6.40648 1.21618C6.5798 1.21618 7.042 1.33247 7.27309 1.62318C7.56196 2.03018 7.56196 2.90233 7.56196 2.90233C7.56196 2.90233 7.73528 5.40246 7.15755 5.69317C6.75313 5.92574 6.23316 5.46061 5.07768 3.48376C4.49994 2.49533 4.03775 1.33247 4.03775 1.33247C4.03775 1.33247 3.97998 1.09991 3.80666 0.983626C3.63334 0.867341 3.34447 0.809205 3.34447 0.809205H0.629094C0.629094 0.809205 0.224676 0.809198 0.0513546 0.983626C-0.0641932 1.15805 0.0513546 1.44876 0.0513546 1.44876C0.0513546 1.44876 2.18899 6.44904 4.61549 9.00732C6.69535 11.5656 9.2374 11.3912 9.2374 11.3912Z" fill="white"/>
</svg>
