<svg width="620" height="67" fill="none" xmlns="http://www.w3.org/2000/svg"><path d="M25.17.798v65.069h-5.91V6.252H5.91v59.615H0V.798h25.17zM55.962 56.87a32.57 32.57 0 01-8.77-23.25 32.05 32.05 0 012.133-13.165 31.942 31.942 0 017.306-11.141 32.357 32.357 0 0110.79-7.027A32.266 32.266 0 0180.086.032a31 31 0 0113.012 2.224 31.096 31.096 0 0110.921 7.44 33.473 33.473 0 018.867 23.349 32.495 32.495 0 01-2.16 12.91 32.382 32.382 0 01-7.075 10.997 32.259 32.259 0 01-10.834 7.29 32.173 32.173 0 01-12.825 2.389 30.808 30.808 0 01-13.084-2.23 30.904 30.904 0 01-10.946-7.53zm50.725-23.73c0-16.458-11.059-27.558-26.6-27.558-15.925 0-26.793 11.1-26.699 27.942-.094 16.459 10.87 27.557 26.698 27.557 15.733 0 26.601-11.098 26.601-27.94zM141.011.798V40.03L161.416.8h6.481l-20.975 39.997 21.548 25.07h-7.533l-19.926-22.774v22.775h-6.008V.798h6.008zm42.993 65.069L203.741.127h.667l19.835 65.74h-6.294l-11.825-40.764c-.476-1.626-.952-3.541-1.334-5.072-.382-1.531-.761-2.678-.761-3.062 0 .288-.382 1.435-.764 2.967-.382 1.531-.858 3.54-1.334 5.167l-11.919 40.764h-6.008zm66.36-8.997a32.567 32.567 0 01-8.771-23.25 32.03 32.03 0 012.134-13.165 31.94 31.94 0 017.306-11.141 32.356 32.356 0 0110.79-7.027A32.26 32.26 0 01274.487.032 31.001 31.001 0 01287.5 2.256a31.083 31.083 0 0110.92 7.44 33.478 33.478 0 018.868 23.349 32.495 32.495 0 01-2.16 12.91 32.412 32.412 0 01-7.075 10.997 32.274 32.274 0 01-10.835 7.29 32.171 32.171 0 01-12.825 2.389 30.805 30.805 0 01-13.083-2.23 30.9 30.9 0 01-10.946-7.53zm50.725-23.73c0-16.458-11.059-27.558-26.602-27.558-15.923 0-26.792 11.1-26.697 27.942-.095 16.459 10.87 27.557 26.697 27.557 15.733 0 26.602-11.098 26.602-27.94zM335.218.798v37.703h13.349V.798h5.911v65.069h-5.911V43.953h-13.349v21.914h-5.911V.798h5.911zm50.531 0v37.703h13.348V.798h5.911v65.069h-5.911V43.953h-13.348v21.914h-5.911V.798h5.911zm84.568 54.734h-34.61l-4.29 10.335h-6.008L452.774.127h.667l27.462 65.74h-6.294l-4.292-10.335zm-2.192-5.166l-15.16-36.363-15.066 36.363h30.226zm36.798 15.501h-6.578l10.868-19.711c-6.769-4.116-10.489-11.293-10.489-20.48v-1.052c0-14.353 8.964-23.826 23.742-23.826h8.486v65.069h-6.006V49.408h-2.956a27.011 27.011 0 01-7.533-.958l-9.534 17.417zm20.023-59.615h-2.383c-12.014 0-17.737 7.272-17.737 18.468v.861c0 11.004 6.008 18.564 17.258 18.564h2.862V6.252zm81.322 37.895a28.216 28.216 0 011.954-3.54c.339-.53.705-1.041 1.099-1.531a12 12 0 01-7.533 2.583 14.317 14.317 0 01-6.673-1.578 16.225 16.225 0 01-5.244-4.305 19.752 19.752 0 01-3.385-6.46 25.891 25.891 0 01-1.193-7.942v-.957a25.648 25.648 0 011.24-8.132 19.952 19.952 0 013.479-6.46 15.79 15.79 0 015.435-4.257 17.701 17.701 0 0114.397 0c2.102 1 3.958 2.454 5.435 4.258a19.924 19.924 0 013.479 6.506 26.155 26.155 0 011.24 8.18v.862a33.136 33.136 0 01-1.431 10 58.288 58.288 0 01-3.908 9.327l-13.062 25.166h-6.388l11.059-21.72zm-3.623-7.846a9.689 9.689 0 004.7-1.013 9.728 9.728 0 003.642-3.149 17.95 17.95 0 003.005-10.765v-.861a22.7 22.7 0 00-.763-6.027 14.478 14.478 0 00-2.242-4.784 10.436 10.436 0 00-3.573-3.11 10.135 10.135 0 00-4.768-1.1 9.75 9.75 0 00-4.625 1.075 9.79 9.79 0 00-3.575 3.135 15.838 15.838 0 00-2.24 4.784 21.354 21.354 0 00-.81 6.027v.861c-.021 2.02.236 4.032.763 5.981a15.064 15.064 0 002.192 4.736 9.956 9.956 0 003.529 3.11 10.095 10.095 0 004.766 1.1h-.001z" fill="#FF6E00"/></svg>