<svg width="956" height="103" fill="none" xmlns="http://www.w3.org/2000/svg"><path d="M38.811 1.23v100.332h-9.115V9.64H9.115v91.922H0V1.231h38.811zM86.29 87.691A50.22 50.22 0 0172.766 51.84a49.394 49.394 0 013.29-20.298 49.252 49.252 0 0111.266-17.18 49.892 49.892 0 0116.637-10.835A49.752 49.752 0 01123.487.049c6.856-.31 13.698.86 20.064 3.43a47.936 47.936 0 0116.839 11.473 51.617 51.617 0 0113.673 36.001 50.122 50.122 0 01-3.33 19.906 49.966 49.966 0 01-10.91 16.958 49.746 49.746 0 01-16.706 11.239 49.597 49.597 0 01-19.775 3.684 47.49 47.49 0 01-20.174-3.438 47.651 47.651 0 01-16.878-11.61zm78.215-36.59c0-25.378-17.053-42.494-41.018-42.494-24.553 0-41.311 17.116-41.166 43.085-.145 25.378 16.762 42.492 41.166 42.492 24.26 0 41.018-17.114 41.018-43.083zM217.429 1.23v60.492l31.463-60.491h9.994l-32.342 61.673 33.225 38.658h-11.615l-30.725-35.117v35.117h-9.264V1.231h9.264zm66.294 100.332L314.157.197h1.028l30.583 101.365h-9.704l-18.233-62.854c-.734-2.508-1.468-5.46-2.057-7.82-.589-2.362-1.174-4.131-1.174-4.722 0 .443-.589 2.212-1.178 4.574-.588 2.362-1.322 5.46-2.057 7.968l-18.378 62.854h-9.264zm102.321-13.871A50.22 50.22 0 01372.52 51.84a49.404 49.404 0 013.29-20.298 49.266 49.266 0 0111.266-17.18 49.886 49.886 0 0116.637-10.835A49.752 49.752 0 01423.241.049c6.856-.31 13.698.86 20.064 3.43a47.936 47.936 0 0116.839 11.473 51.617 51.617 0 0113.673 36.001 50.122 50.122 0 01-3.33 19.906 49.966 49.966 0 01-10.91 16.958 49.746 49.746 0 01-16.706 11.239 49.597 49.597 0 01-19.775 3.684 47.49 47.49 0 01-20.174-3.438 47.647 47.647 0 01-16.878-11.61zm78.214-36.59c0-25.378-17.052-42.494-41.017-42.494-24.554 0-41.311 17.116-41.166 43.085-.145 25.378 16.762 42.492 41.166 42.492 24.259 0 41.017-17.114 41.017-43.083zM516.884 1.23v58.136h20.584V1.231h9.115v100.331h-9.115V67.773h-20.584v33.789h-9.114V1.231h9.114zm77.917 0v58.136h20.581V1.231h9.115v100.331h-9.115V67.773h-20.581v33.789h-9.115V1.231h9.115zM725.2 85.627h-53.366l-6.615 15.935h-9.264L698.15.197h1.028l42.344 101.365h-9.703L725.2 85.627zm-3.38-7.966l-23.376-56.069-23.23 56.07h46.606zm56.739 23.901h-10.143l16.758-30.393c-10.438-6.347-16.173-17.413-16.173-31.577v-1.623c0-22.132 13.822-36.738 36.609-36.738h13.084v100.331h-9.261V76.184h-4.557a41.652 41.652 0 01-11.616-1.477l-14.701 26.855zM809.433 9.64h-3.674c-18.524 0-27.349 11.214-27.349 28.477v1.327c0 16.968 9.264 28.625 26.611 28.625h4.412V9.639zm125.394 58.432a43.58 43.58 0 013.013-5.46 26.861 26.861 0 011.694-2.36 18.5 18.5 0 01-11.615 3.983c-3.576.035-7.106-.8-10.289-2.433a25.04 25.04 0 01-8.087-6.638 30.496 30.496 0 01-5.219-9.96 39.912 39.912 0 01-1.839-12.247v-1.475a39.523 39.523 0 011.912-12.54 30.761 30.761 0 015.364-9.959 24.336 24.336 0 018.381-6.565 27.289 27.289 0 0122.199 0 24.376 24.376 0 018.381 6.565 30.747 30.747 0 015.364 10.032 40.341 40.341 0 011.912 12.614v1.328a51.153 51.153 0 01-2.206 15.42 90.115 90.115 0 01-6.026 14.38l-20.142 38.805h-9.849l17.052-33.49zm-5.586-12.098c2.508.097 5-.44 7.247-1.562a14.998 14.998 0 005.615-4.856 27.686 27.686 0 004.634-16.599V31.63a34.907 34.907 0 00-1.177-9.294 22.313 22.313 0 00-3.456-7.376 16.108 16.108 0 00-5.51-4.797 15.629 15.629 0 00-7.352-1.696 15.04 15.04 0 00-7.132 1.66 15.095 15.095 0 00-5.512 4.833 24.42 24.42 0 00-3.453 7.376 32.914 32.914 0 00-1.25 9.294v1.327a33.979 33.979 0 001.177 9.223 23.187 23.187 0 003.38 7.302 15.354 15.354 0 005.441 4.796 15.569 15.569 0 007.348 1.696z" fill="#FF6E00"/></svg>