<svg width="11" height="17" fill="none" xmlns="http://www.w3.org/2000/svg"><path fill-rule="evenodd" clip-rule="evenodd" d="M5.5 9A4.513 4.513 0 011 4.5C1 2.025 3.025 0 5.5 0S10 2.025 10 4.5 7.975 9 5.5 9zm0-6.863A2.377 2.377 0 003.137 4.5 2.377 2.377 0 005.5 6.863 2.377 2.377 0 007.862 4.5 2.377 2.377 0 005.5 2.137z" fill="#fff"/><path fill-rule="evenodd" clip-rule="evenodd" d="M10.769 9.45c-.428-.493-1.161-.548-1.711-.22 0 0-1.345.876-3.545.876S1.968 9.23 1.968 9.23a1.288 1.288 0 00-1.71.22c-.429.492-.306 1.148.244 1.531.06.055 1.344.93 3.483 1.204L.746 15.14c-.489.437-.489 1.149 0 1.532a1.28 1.28 0 001.711 0l3.056-2.79 3.056 2.79a1.28 1.28 0 001.711 0c.489-.438.489-1.095 0-1.532l-3.24-2.955c2.14-.328 3.423-1.204 3.484-1.204.55-.383.612-1.094.245-1.532z" fill="#fff"/></svg>