<svg width="335" height="37" fill="none" xmlns="http://www.w3.org/2000/svg"><path d="M13.6.431V35.59h-3.194V3.378H3.194v32.211H0V.431h13.6zm16.638 30.298A17.598 17.598 0 0125.5 18.166a17.31 17.31 0 011.153-7.114 17.26 17.26 0 013.948-6.02 17.484 17.484 0 015.83-3.796A17.434 17.434 0 0143.273.017a16.75 16.75 0 017.03 1.202 16.8 16.8 0 015.901 4.02 18.087 18.087 0 014.791 12.616 17.556 17.556 0 01-1.166 6.975 17.508 17.508 0 01-3.823 5.943 17.434 17.434 0 01-5.855 3.938 17.382 17.382 0 01-6.93 1.291 16.647 16.647 0 01-7.068-1.205 16.698 16.698 0 01-5.915-4.068zm27.408-12.822c0-8.893-5.975-14.89-14.373-14.89-8.604 0-14.477 5.997-14.426 15.097-.05 8.893 5.874 14.89 14.426 14.89 8.5 0 14.373-5.997 14.373-15.097zM76.192.431v21.197L87.217.431h3.502L79.386 22.042 91.028 35.59h-4.07L76.192 23.284v12.305h-3.247V.431h3.247zm23.23 35.159L110.087.068h.36l10.717 35.52h-3.401l-6.389-22.025c-.257-.879-.514-1.914-.721-2.74-.206-.828-.411-1.448-.411-1.655 0 .155-.206.775-.413 1.603-.206.827-.463 1.913-.721 2.792l-6.44 22.025h-3.246zm35.854-4.861a17.601 17.601 0 01-4.739-12.563 17.307 17.307 0 011.153-7.114 17.253 17.253 0 013.948-6.02 17.485 17.485 0 015.83-3.796 17.435 17.435 0 016.843-1.219c2.402-.109 4.8.301 7.031 1.202s4.243 2.272 5.9 4.02a18.088 18.088 0 014.792 12.616 17.56 17.56 0 01-1.167 6.975 17.509 17.509 0 01-3.823 5.943 17.429 17.429 0 01-5.855 3.938 17.38 17.38 0 01-6.929 1.291 16.642 16.642 0 01-7.069-1.205 16.7 16.7 0 01-5.915-4.068zm27.408-12.822c0-8.893-5.975-14.89-14.373-14.89-8.604 0-14.476 5.997-14.426 15.097-.05 8.893 5.874 14.89 14.426 14.89 8.501 0 14.373-5.997 14.373-15.097zM181.126.431v20.372h7.212V.43h3.194v35.16h-3.194V23.75h-7.212v11.84h-3.194V.431h3.194zm27.303 0v20.372h7.212V.43h3.195v35.16h-3.195V23.75h-7.212v11.84h-3.194V.431h3.194zm45.693 29.574h-18.7l-2.318 5.584h-3.247L244.643.07h.361l14.838 35.52h-3.401l-2.319-5.584zm-1.184-2.791l-8.192-19.648-8.14 19.648h16.332zm19.883 8.375h-3.554l5.872-10.65c-3.658-2.224-5.667-6.102-5.667-11.066v-.568C269.472 5.549 274.315.43 282.3.43h4.585v35.16h-3.245v-8.893h-1.597a14.59 14.59 0 01-4.07-.518l-5.152 9.411zM283.64 3.378h-1.288c-6.491 0-9.583 3.93-9.583 9.979v.465c0 5.945 3.246 10.03 9.325 10.03h1.546V3.378zm43.941 20.476c.306-.663.659-1.302 1.056-1.913.183-.287.381-.563.593-.827a6.483 6.483 0 01-4.07 1.395 7.733 7.733 0 01-3.605-.852 8.767 8.767 0 01-2.834-2.326 10.687 10.687 0 01-1.829-3.49 13.968 13.968 0 01-.644-4.292v-.517a13.823 13.823 0 01.67-4.394 10.772 10.772 0 011.879-3.49 8.53 8.53 0 012.937-2.3 9.566 9.566 0 017.779 0 8.537 8.537 0 012.937 2.3 10.787 10.787 0 011.88 3.515c.456 1.429.682 2.92.669 4.42v.466a17.88 17.88 0 01-.773 5.403 31.562 31.562 0 01-2.111 5.04l-7.058 13.597h-3.451l5.975-11.735zm-1.957-4.24a5.236 5.236 0 002.539-.547 5.265 5.265 0 001.968-1.701 9.708 9.708 0 001.623-5.817v-.465c.01-1.1-.129-2.195-.412-3.257a7.834 7.834 0 00-1.211-2.585 5.646 5.646 0 00-1.931-1.68 5.476 5.476 0 00-2.576-.595 5.285 5.285 0 00-4.431 2.275 8.56 8.56 0 00-1.21 2.585 11.563 11.563 0 00-.438 3.257v.465a11.91 11.91 0 00.413 3.232 8.098 8.098 0 001.184 2.558 5.382 5.382 0 001.906 1.681c.798.406 1.682.61 2.576.594z" fill="#FF6E00"/></svg>